<svg width="39" height="52" viewBox="0 0 39 52" fill="none" xmlns="http://www.w3.org/2000/svg">
<path fill-rule="evenodd" clip-rule="evenodd" d="M16.6858 2.93452H16.5526C16.3479 2.92181 16.1432 2.91672 15.9385 2.91163L15.9384 2.91163H15.9187H15.4945C15.1072 2.91163 14.7126 2.92181 14.3204 2.94215C14.2909 2.93994 14.2612 2.93994 14.2316 2.94215C10.6784 3.14863 7.19717 4.05951 3.97848 5.62492L3.55671 5.83344V27.9746L4.5433 27.6313C5.40904 27.3261 6.3315 27.0515 7.28603 26.7972C9.86637 26.1178 12.5158 25.7567 15.1788 25.7216V28.6306C14.8261 28.6332 14.4832 28.6434 14.1404 28.6612H14.059C12.0096 28.7765 9.97588 29.0967 7.98651 29.6173C5.46698 30.2643 3.03648 31.2357 0.752319 32.5086V4.11189C3.12458 2.69275 5.6797 1.62687 8.34168 0.945963C10.6789 0.327052 13.0815 0.00930695 15.4945 0H15.9113C16.4095 0.0127146 16.8954 0.0356008 17.3517 0.0712015C18.554 0.157776 19.7465 0.352628 20.9158 0.653528V3.51685C19.7802 3.24551 18.6256 3.06695 17.4627 2.98284C17.4391 2.98079 17.4155 2.97872 17.3919 2.97666C17.1514 2.95561 16.9104 2.93452 16.6858 2.93452ZM21.599 5.86138C22.218 5.9097 22.8593 5.93259 23.508 5.93259C26.0447 5.92307 28.5706 5.59083 31.0283 4.94339C33.5467 4.29396 35.9762 3.32178 38.26 2.04956V29.9402C35.8865 31.3585 33.3307 32.4243 30.6682 33.1061C28.3306 33.7227 25.9282 34.0395 23.5154 34.0496C21.6872 34.0647 19.8644 33.8443 18.0892 33.3935V5.32229C18.5085 5.42146 18.9401 5.51301 19.3791 5.58929C20.0993 5.7139 20.859 5.80544 21.599 5.86138ZM35.4384 6.07753L34.4518 6.41828C33.5441 6.73106 32.6291 7.01078 31.7091 7.25998C29.0305 7.96596 26.2776 8.3281 23.5129 8.33818C22.8692 8.33818 22.2772 8.32038 21.705 8.28224L20.9182 8.22883V28.3178V31.0057L21.594 31.0667C22.2205 31.1227 22.8667 31.1506 23.5179 31.1506C25.6956 31.1412 27.8637 30.8533 29.9727 30.2937C31.7093 29.8469 33.3988 29.2243 35.0166 28.4348L35.4384 28.2263V6.07753Z" fill="#AFB1B8"/>
<path d="M2.66875 42.2124C2.52692 42.0615 2.35592 41.943 2.16685 41.8646C1.97777 41.7862 1.77483 41.7496 1.57117 41.7572C1.35412 41.7542 1.13866 41.7957 0.937281 41.8793C0.75265 41.9547 0.584818 42.068 0.443985 42.2124C0.304685 42.3572 0.196305 42.5304 0.125809 42.721C0.048483 42.9207 0.00993467 43.1341 0.0123507 43.3491V47.1431C0.00352929 47.4104 0.0532692 47.6764 0.157873 47.9212C0.245193 48.1156 0.371253 48.2889 0.527845 48.4298C0.675675 48.5575 0.84925 48.6495 1.03594 48.6994C1.21581 48.7512 1.40166 48.7777 1.58843 48.7782C1.79445 48.7803 1.99834 48.7351 2.18532 48.646C2.37022 48.563 2.53775 48.4438 2.67862 48.295C2.81598 48.1476 2.92555 47.9752 3.00173 47.7864C3.08078 47.5951 3.12107 47.3892 3.12012 47.1812V46.7566H2.15326V47.0948C2.15613 47.2103 2.13685 47.3252 2.09653 47.433C2.06504 47.5137 2.0171 47.5866 1.95594 47.6466C1.89604 47.6962 1.82735 47.7334 1.75369 47.7559C1.68839 47.7782 1.62021 47.7902 1.55144 47.7915C1.46511 47.8018 1.37768 47.7885 1.29799 47.7527C1.21829 47.717 1.14917 47.6602 1.0976 47.5881C1.00646 47.4356 0.961781 47.2585 0.969346 47.0795V43.5423C0.963347 43.3462 1.00399 43.1515 1.08774 42.9753C1.13793 42.8952 1.20894 42.8313 1.29268 42.7908C1.37641 42.7503 1.46949 42.7349 1.5613 42.7464C1.64464 42.7434 1.72745 42.7612 1.80263 42.7984C1.87781 42.8356 1.94311 42.8911 1.99294 42.96C2.10113 43.1057 2.1577 43.2852 2.15326 43.4686V43.7966H3.11025V43.4101C3.1122 43.1831 3.07201 42.9578 2.99186 42.7464C2.92043 42.5476 2.8105 42.3659 2.66875 42.2124Z" fill="#AFB1B8"/>
<path d="M8.41323 42.1691C8.10493 41.9021 7.71581 41.7546 7.31317 41.7521C7.11624 41.7529 6.92095 41.7891 6.73602 41.8589C6.54826 41.9279 6.37498 42.0332 6.22546 42.1691C6.06528 42.3168 5.93747 42.498 5.85055 42.7006C5.75315 42.9323 5.7052 43.183 5.70996 43.4355V47.0744C5.70329 47.3304 5.75129 47.5847 5.85055 47.8195C5.93805 48.0151 6.06601 48.1887 6.22546 48.328C6.37327 48.4688 6.54685 48.5777 6.73602 48.6485C6.92095 48.7183 7.11624 48.7544 7.31317 48.7553C7.51015 48.7549 7.70552 48.7187 7.89033 48.6485C8.08273 48.5767 8.26018 48.468 8.41323 48.328C8.56745 48.1861 8.69171 48.013 8.77826 47.8195C8.87753 47.5847 8.92552 47.3304 8.91885 47.0744V43.4355C8.92361 43.183 8.87567 42.9323 8.77826 42.7006C8.69221 42.5001 8.56809 42.3194 8.41323 42.1691ZM7.96186 47.0744C7.97001 47.1714 7.95695 47.269 7.92366 47.3601C7.89036 47.4512 7.83768 47.5334 7.76947 47.6008C7.64177 47.7106 7.48072 47.7708 7.31441 47.7708C7.14809 47.7708 6.98705 47.7106 6.85934 47.6008C6.79114 47.5334 6.73845 47.4512 6.70516 47.3601C6.67186 47.269 6.65881 47.1714 6.66696 47.0744V43.4355C6.65881 43.3385 6.67186 43.2409 6.70516 43.1498C6.73845 43.0587 6.79114 42.9764 6.85934 42.9091C6.98705 42.7993 7.14809 42.7391 7.31441 42.7391C7.48072 42.7391 7.64177 42.7993 7.76947 42.9091C7.83768 42.9764 7.89036 43.0587 7.92366 43.1498C7.95695 43.2409 7.97001 43.3385 7.96186 43.4355V47.0744Z" fill="#AFB1B8"/>
<path d="M15.9581 48.6994V41.8107H15.0282L13.8073 45.4572H13.7901L12.5593 41.8107H11.6393V48.6994H12.5987V44.5087H12.616L13.5557 47.4712H14.0342L14.9814 44.5087H14.9986V48.6994H15.9581Z" fill="#AFB1B8"/>
<path d="M21.4092 42.2937C21.2614 42.1237 21.0749 41.9943 20.8665 41.9173C20.642 41.8424 20.407 41.8063 20.171 41.8105H18.7454V48.6993H19.7024V46.0089H20.1957C20.4942 46.0228 20.7914 45.958 21.0589 45.8207C21.2765 45.6968 21.4579 45.515 21.5843 45.2943C21.695 45.1111 21.7696 44.9071 21.8038 44.6942C21.8415 44.435 21.8588 44.173 21.8556 43.911C21.8649 43.5802 21.8334 43.2495 21.7619 42.9269C21.698 42.6885 21.5767 42.4706 21.4092 42.2937ZM20.9159 44.3941C20.9117 44.5188 20.8814 44.6412 20.8271 44.7527C20.7724 44.8586 20.6858 44.9434 20.5804 44.9942C20.4387 45.0593 20.284 45.0889 20.1291 45.0807H19.6925V42.7387H20.1858C20.3343 42.7312 20.4824 42.7609 20.6174 42.8251C20.7164 42.8834 20.7949 42.9724 20.8419 43.0794C20.8942 43.2004 20.9227 43.331 20.9257 43.4634C20.9257 43.6084 20.9257 43.7609 20.9257 43.9211C20.9257 44.0813 20.9356 44.2466 20.9257 44.3941H20.9159Z" fill="#AFB1B8"/>
<path d="M25.9425 41.8107H25.1581L23.6782 48.6994H24.6352L24.9164 47.2194H26.2212L26.5023 48.6994H27.4593L25.9425 41.8107ZM25.0595 46.2811L25.5306 43.784H25.5478L26.0164 46.2811H25.0595Z" fill="#AFB1B8"/>
<path d="M32.1259 45.9607H32.1086L30.6633 41.8107H29.7433V48.6994H30.7003V44.557H30.72L32.1826 48.6994H33.0829V41.8107H32.1259V45.9607Z" fill="#AFB1B8"/>
<path d="M37.9739 41.8107L37.2044 44.5494H37.1846L36.4151 41.8107H35.4014L36.716 45.7878V48.6994H37.673V45.7878L38.9876 41.8107H37.9739Z" fill="#AFB1B8"/>
<path d="M0 50.6445H0.461232V51.9719H0.774475V50.6445H1.23324V50.3724H0V50.6445Z" fill="#AFB1B8"/>
<path d="M3.87724 50.3724L3.27295 51.9719H3.60592L3.73418 51.6083H4.35573L4.48892 51.9719H4.8293L4.21021 50.3724H3.87724ZM3.82791 51.3387L4.04002 50.7462L4.25214 51.3387H3.82791Z" fill="#AFB1B8"/>
<path d="M7.71022 51.3821H8.07033V51.5881C7.96516 51.6746 7.83485 51.722 7.70035 51.7229C7.63745 51.7265 7.57462 51.7145 7.51712 51.688C7.45962 51.6614 7.40912 51.6211 7.36985 51.5703C7.28716 51.4485 7.24635 51.3017 7.25392 51.1533C7.25392 50.7973 7.40438 50.6193 7.70282 50.6193C7.78138 50.6112 7.86013 50.6325 7.92482 50.6791C7.98952 50.7257 8.03588 50.7947 8.05553 50.8735L8.36384 50.8125C8.29724 50.4997 8.07773 50.3421 7.70282 50.3421C7.5023 50.3366 7.30732 50.4103 7.15773 50.5481C7.07916 50.6276 7.01837 50.7239 6.97961 50.8302C6.94084 50.9365 6.92503 51.0502 6.93328 51.1634C6.92419 51.3823 6.99554 51.5966 7.13306 51.7636C7.20947 51.8444 7.30196 51.9071 7.40415 51.9475C7.50634 51.9879 7.61581 52.0049 7.72502 51.9975C7.96903 52.0045 8.20609 51.9133 8.38604 51.7432V51.1126H7.71022V51.3821Z" fill="#AFB1B8"/>
<path d="M11.6245 50.3724H11.3088V51.9719H12.4015V51.6998H11.6245V50.3724Z" fill="#AFB1B8"/>
<path d="M14.9345 50.3724H14.6188V51.9719H14.9345V50.3724Z" fill="#AFB1B8"/>
<path d="M18.1706 51.4405L17.5318 50.3724H17.226V51.9719H17.5195V50.9268L18.1459 51.9719H18.4592V50.3724H18.1706V51.4405Z" fill="#AFB1B8"/>
<path d="M21.0959 51.2675H21.8728V50.9954H21.0959V50.6445H21.932V50.3724H20.7802V51.9719H21.9641V51.6998H21.0959V51.2675Z" fill="#AFB1B8"/>
<path d="M28.1895 51.0031H27.5753V50.3724H27.2621V51.9719H27.5753V51.2726H28.1895V51.9719H28.5027V50.3724H28.1895V51.0031Z" fill="#AFB1B8"/>
<path d="M31.1318 51.2675H31.9113V50.9954H31.1318V50.6445H31.9704V50.3724H30.8186V51.9719H32V51.6998H31.1318V51.2675Z" fill="#AFB1B8"/>
<path d="M35.1226 51.2676C35.394 51.2244 35.5321 51.0769 35.5321 50.8226C35.5399 50.7546 35.5299 50.6856 35.503 50.623C35.4761 50.5603 35.4333 50.5063 35.3792 50.4666C35.2379 50.3938 35.0804 50.3614 34.9229 50.3725H34.2618V51.972H34.5751V51.3032H34.6367C34.7035 51.299 34.7703 51.3112 34.8316 51.3388C34.8774 51.3678 34.9155 51.4079 34.9426 51.4558L35.283 51.9644H35.6579L35.4679 51.6516C35.384 51.4972 35.2656 51.3656 35.1226 51.2676ZM34.8069 51.0464H34.5751V50.6446H34.8217C34.9292 50.6357 35.0373 50.6486 35.1399 50.6827C35.1627 50.7034 35.1807 50.7291 35.1926 50.7579C35.2044 50.7867 35.2099 50.8179 35.2084 50.8492C35.207 50.8804 35.1988 50.911 35.1844 50.9385C35.1699 50.966 35.1497 50.9899 35.1251 51.0082C35.0221 51.0406 34.9144 51.0535 34.8069 51.0464Z" fill="#AFB1B8"/>
<path d="M38.1319 51.2675H38.9088V50.9954H38.1319V50.6445H38.9705V50.3724H37.8162V51.9719H39.0001V51.6998H38.1319V51.2675Z" fill="#AFB1B8"/>
</svg>
